<svg width="7" height="15" viewBox="0 0 7 15" fill="none" xmlns="http://www.w3.org/2000/svg">
<path d="M5.6 8.25V2.25C5.6 1.65326 5.37875 1.08097 4.98492 0.65901C4.5911 0.237053 4.05695 0 3.5 0C2.94305 0 2.4089 0.237053 2.01508 0.65901C1.62125 1.08097 1.4 1.65326 1.4 2.25V8.25C0.812329 8.72224 0.378233 9.38061 0.159203 10.1319C-0.059828 10.8831 -0.0526888 11.6892 0.179609 12.4359C0.411906 13.1825 0.857585 13.832 1.45351 14.2922C2.04944 14.7524 2.76541 15 3.5 15C4.23459 15 4.95056 14.7524 5.54649 14.2922C6.14242 13.832 6.58809 13.1825 6.82039 12.4359C7.05269 11.6892 7.05983 10.8831 6.8408 10.1319C6.62177 9.38061 6.18767 8.72224 5.6 8.25ZM3.5 1.5C3.68565 1.5 3.8637 1.57902 3.99497 1.71967C4.12625 1.86032 4.2 2.05109 4.2 2.25V7.5H2.8V2.25C2.8 2.05109 2.87375 1.86032 3.00503 1.71967C3.1363 1.57902 3.31435 1.5 3.5 1.5Z" fill="#D56A11"/>
</svg>
