<svg viewBox="0 0 39 39" fill="none" xmlns="http://www.w3.org/2000/svg">
<path d="M19.5 0C16.9392 0 14.4035 0.516905 12.0377 1.5212C9.67182 2.5255 7.52216 3.99752 5.71142 5.85322C2.05446 9.60097 0 14.684 0 19.9841C0 28.8171 5.5965 36.3112 13.338 38.969C14.313 39.1289 14.625 38.5094 14.625 37.9698C14.625 37.5102 14.625 36.2512 14.625 34.5925C9.2235 35.7916 8.073 31.9146 8.073 31.9146C7.176 29.5965 5.9085 28.977 5.9085 28.977C4.134 27.738 6.045 27.7779 6.045 27.7779C7.995 27.9178 9.0285 29.8363 9.0285 29.8363C10.725 32.8739 13.5915 31.9746 14.703 31.495C14.8785 30.196 15.3855 29.3167 15.9315 28.8171C11.6025 28.3175 7.059 26.5989 7.059 18.9849C7.059 16.7667 7.8 14.9881 9.0675 13.5692C8.8725 13.0696 8.19 10.9913 9.2625 8.29341C9.2625 8.29341 10.9005 7.75384 14.625 10.3318C16.1655 9.89214 17.8425 9.67232 19.5 9.67232C21.1575 9.67232 22.8345 9.89214 24.375 10.3318C28.0995 7.75384 29.7375 8.29341 29.7375 8.29341C30.81 10.9913 30.1275 13.0696 29.9325 13.5692C31.2 14.9881 31.941 16.7667 31.941 18.9849C31.941 26.6189 27.378 28.2975 23.0295 28.7971C23.7315 29.4166 24.375 30.6357 24.375 32.4942C24.375 35.1721 24.375 37.3303 24.375 37.9698C24.375 38.5094 24.687 39.1489 25.6815 38.969C33.423 36.2912 39 28.8171 39 19.9841C39 17.3598 38.4956 14.7611 37.5157 12.3365C36.5357 9.91195 35.0993 7.70891 33.2886 5.85322C31.4778 3.99752 29.3282 2.5255 26.9623 1.5212C24.5965 0.516905 22.0608 0 19.5 0Z" fill="black"/>
</svg>
