<svg viewBox="0 0 38 38" fill="none" xmlns="http://www.w3.org/2000/svg">
<path d="M19.0001 11.75C20.9892 11.75 22.8968 12.5402 24.3034 13.9467C25.7099 15.3532 26.5001 17.2609 26.5001 19.25C26.5001 21.2391 25.7099 23.1468 24.3034 24.5533C22.8968 25.9598 20.9892 26.75 19.0001 26.75C17.0109 26.75 15.1033 25.9598 13.6968 24.5533C12.2902 23.1468 11.5001 21.2391 11.5001 19.25C11.5001 17.2609 12.2902 15.3532 13.6968 13.9467C15.1033 12.5402 17.0109 11.75 19.0001 11.75ZM19.0001 15.5C18.0055 15.5 17.0517 15.8951 16.3484 16.5984C15.6452 17.3016 15.2501 18.2554 15.2501 19.25C15.2501 20.2446 15.6452 21.1984 16.3484 21.9016C17.0517 22.6049 18.0055 23 19.0001 23C19.9946 23 20.9485 22.6049 21.6517 21.9016C22.355 21.1984 22.7501 20.2446 22.7501 19.25C22.7501 18.2554 22.355 17.3016 21.6517 16.5984C20.9485 15.8951 19.9946 15.5 19.0001 15.5ZM15.2501 38C14.7813 38 14.3876 37.6625 14.3126 37.2125L13.6188 32.2438C12.4376 31.775 11.4251 31.1375 10.4501 30.3875L5.78131 32.2813C5.36881 32.4313 4.86257 32.2812 4.63757 31.8687L0.887565 25.3813C0.643815 24.9688 0.756315 24.4625 1.11257 24.1812L5.06882 21.0688L4.93757 19.25L5.06882 17.375L1.11257 14.3187C0.756315 14.0375 0.643815 13.5312 0.887565 13.1187L4.63757 6.63125C4.86257 6.21875 5.36881 6.05 5.78131 6.21875L10.4501 8.09375C11.4251 7.3625 12.4376 6.725 13.6188 6.25625L14.3126 1.2875C14.3876 0.8375 14.7813 0.5 15.2501 0.5H22.7501C23.2188 0.5 23.6126 0.8375 23.6876 1.2875L24.3813 6.25625C25.5626 6.725 26.5751 7.3625 27.5501 8.09375L32.2188 6.21875C32.6313 6.05 33.1376 6.21875 33.3626 6.63125L37.1126 13.1187C37.3563 13.5312 37.2438 14.0375 36.8876 14.3187L32.9313 17.375L33.0626 19.25L32.9313 21.125L36.8876 24.1812C37.2438 24.4625 37.3563 24.9688 37.1126 25.3813L33.3626 31.8687C33.1376 32.2812 32.6313 32.45 32.2188 32.2813L27.5501 30.4063C26.5751 31.1375 25.5626 31.775 24.3813 32.2438L23.6876 37.2125C23.6126 37.6625 23.2188 38 22.7501 38H15.2501ZM17.5938 4.25L16.9001 9.14375C14.6501 9.6125 12.6626 10.8125 11.2188 12.4813L6.70007 10.5312L5.29382 12.9687L9.25006 15.875C8.50006 18.0688 8.50006 20.45 9.25006 22.625L5.27506 25.55L6.68131 27.9875L11.2376 26.0375C12.6813 27.6875 14.6501 28.8875 16.8813 29.3375L17.5751 34.25H20.4251L21.1188 29.3562C23.3501 28.8875 25.3188 27.6875 26.7626 26.0375L31.3188 27.9875L32.7251 25.55L28.7501 22.6438C29.5001 20.45 29.5001 18.0688 28.7501 15.875L32.7063 12.9687L31.3001 10.5312L26.7813 12.4813C25.3376 10.8125 23.3501 9.6125 21.1001 9.1625L20.4063 4.25H17.5938Z" fill="#132321"/>
</svg>
