<svg width="9" height="9" viewBox="0 0 9 9" fill="none" xmlns="http://www.w3.org/2000/svg">
<path d="M9 3.56H5.60977L6.97986 2.15C5.61477 0.8 3.40462 0.75 2.03953 2.1C0.674437 3.455 0.674437 5.64 2.03953 7C3.40462 8.35 5.61477 8.35 6.97986 7C7.65991 6.325 7.99993 5.54 7.99993 4.55H9C9 5.54 8.55997 6.825 7.67991 7.695C5.92479 9.435 3.0746 9.435 1.31948 7.695C-0.430637 5.96 -0.445638 3.14 1.30948 1.405C3.0646 -0.33 5.87979 -0.33 7.63491 1.405L9 0V3.56ZM4.74971 2.5V4.625L6.49983 5.665L6.13981 6.27L3.99966 5V2.5H4.74971Z" fill="#386B68"/>
</svg>
