<svg width="21" height="20" viewBox="0 0 21 20" fill="none" xmlns="http://www.w3.org/2000/svg">
<path d="M15.63 9.5L16.89 8.24C17.33 7.8 17.89 7.56 18.5 7.5V6.5L12.5 0.5H2.5C1.39 0.5 0.5 1.39 0.5 2.5V16.5C0.5 17.6 1.39 18.5 2.5 18.5H8.5V16.63L8.63 16.5H2.5V2.5H9.5V9.5H15.63ZM11.5 2L17 7.5H11.5V2ZM16.63 11.33L18.67 13.37L12.54 19.5H10.5V17.46L16.63 11.33ZM20.35 11.69L19.37 12.67L17.33 10.63L18.31 9.65C18.5 9.45 18.83 9.45 19.03 9.65L20.35 10.97C20.55 11.17 20.55 11.5 20.35 11.69Z" fill="black"/>
</svg>
