<svg width="13" height="7" viewBox="0 0 13 7" fill="none" xmlns="http://www.w3.org/2000/svg">
<path d="M1.06486 1.20577C1.06486 1.13516 1.10017 1.0469 1.15312 0.993946C1.27669 0.870382 1.47086 0.870382 1.59443 0.976294L6.32517 5.42461C6.41343 5.51287 6.57229 5.51287 6.67821 5.42461L11.4089 0.976294C11.5325 0.85273 11.7267 0.870382 11.8502 0.993946C11.9738 1.11751 11.9562 1.31168 11.8326 1.43525L7.10185 5.88356C6.76647 6.18364 6.23691 6.18364 5.91917 5.88356L1.17078 1.43525C1.10017 1.36464 1.06486 1.29403 1.06486 1.20577Z" fill="black"/>
<path fill-rule="evenodd" clip-rule="evenodd" d="M1.9719 0.55587L6.50169 4.81522L11.0171 0.569418C11.4015 0.193419 11.9504 0.29526 12.2497 0.594521C12.6344 0.979296 12.5332 1.53344 12.232 1.83466L12.2197 1.84695L7.47862 6.30464C6.93509 6.79096 6.07339 6.80526 5.53222 6.29507C5.53192 6.29478 5.53252 6.29535 5.53222 6.29507L0.771144 1.83487C0.623314 1.68704 0.5 1.48007 0.5 1.20576C0.5 0.987055 0.593613 0.754612 0.753705 0.59452C1.09364 0.254583 1.62269 0.256542 1.96204 0.547411L1.9719 0.55587ZM5.91917 5.88356C6.23691 6.18364 6.76647 6.18364 7.10185 5.88356L11.8326 1.43525C11.9562 1.31168 11.9738 1.11751 11.8502 0.993946C11.7267 0.870382 11.5325 0.85273 11.4089 0.976294L6.67821 5.42461C6.57229 5.51287 6.41343 5.51287 6.32517 5.42461L1.59443 0.976294C1.47086 0.870382 1.27669 0.870382 1.15312 0.993946C1.10017 1.0469 1.06486 1.13516 1.06486 1.20577C1.06486 1.29403 1.10017 1.36464 1.17078 1.43525L5.91917 5.88356Z" fill="black"/>
</svg>
