<svg width="15" height="17" viewBox="0 0 15 17" fill="none" xmlns="http://www.w3.org/2000/svg">
<path d="M5 7.83325H3.33333V9.49992H5V7.83325ZM8.33333 7.83325H6.66667V9.49992H8.33333V7.83325ZM11.6667 7.83325H10V9.49992H11.6667V7.83325ZM13.3333 1.99992H12.5V0.333252H10.8333V1.99992H4.16667V0.333252H2.5V1.99992H1.66667C0.741667 1.99992 0 2.74992 0 3.66659V15.3333C0 15.7753 0.175595 16.1992 0.488155 16.5118C0.800716 16.8243 1.22464 16.9999 1.66667 16.9999H13.3333C13.7754 16.9999 14.1993 16.8243 14.5118 16.5118C14.8244 16.1992 15 15.7753 15 15.3333V3.66659C15 3.22456 14.8244 2.80063 14.5118 2.48807C14.1993 2.17551 13.7754 1.99992 13.3333 1.99992ZM13.3333 15.3333H1.66667V6.16658H13.3333V15.3333Z" fill="black"/>
</svg>
