<svg width="13" height="15" viewBox="0 0 13 15" fill="none" xmlns="http://www.w3.org/2000/svg">
<path d="M6.50376 3.75C7.49966 3.75 8.45477 4.14509 9.15898 4.84835C9.86319 5.55161 10.2588 6.50544 10.2588 7.5C10.2588 8.49456 9.86319 9.44839 9.15898 10.1517C8.45477 10.8549 7.49966 11.25 6.50376 11.25C5.50785 11.25 4.55274 10.8549 3.84853 10.1517C3.14432 9.44839 2.7487 8.49456 2.7487 7.5C2.7487 6.50544 3.14432 5.55161 3.84853 4.84835C4.55274 4.14509 5.50785 3.75 6.50376 3.75ZM6.50376 5.25C5.90621 5.25 5.33315 5.48705 4.91062 5.90901C4.48809 6.33097 4.25072 6.90326 4.25072 7.5C4.25072 8.09674 4.48809 8.66903 4.91062 9.09099C5.33315 9.51295 5.90621 9.75 6.50376 9.75C7.1013 9.75 7.67437 9.51295 8.09689 9.09099C8.51942 8.66903 8.75679 8.09674 8.75679 7.5C8.75679 6.90326 8.51942 6.33097 8.09689 5.90901C7.67437 5.48705 7.1013 5.25 6.50376 5.25ZM6.50376 0L8.29867 2.565C7.74292 2.3625 7.1346 2.25 6.50376 2.25C5.87291 2.25 5.26459 2.3625 4.70884 2.565L6.50376 0ZM0 3.75L3.12421 3.4875C2.6736 3.87 2.26805 4.335 1.95263 4.875C1.62218 5.43 1.43443 6 1.32929 6.5925L0 3.75ZM0.0150202 11.25L1.3368 8.4225C1.44194 9 1.64471 9.585 1.96014 10.125C2.27556 10.68 2.68111 11.145 3.12421 11.5275L0.0150202 11.25ZM13 3.75L11.6707 6.5925C11.5656 6 11.3628 5.4225 11.0474 4.875C10.7319 4.335 10.3339 3.8625 9.8833 3.48L13 3.75ZM12.9925 11.25L9.8833 11.52C10.3264 11.1375 10.7244 10.665 11.0399 10.125C11.3553 9.5775 11.5581 9 11.6632 8.4075L12.9925 11.25ZM6.50376 15L4.69382 12.42C5.24957 12.6225 5.85789 12.75 6.50376 12.75C7.11958 12.75 7.7279 12.6225 8.28365 12.42L6.50376 15Z" fill="#E7D000"/>
</svg>
