<svg width="11" height="15" viewBox="0 0 11 15" fill="none" xmlns="http://www.w3.org/2000/svg">
<path d="M5.5 0.5L4.8125 1.21446C4.8125 1.21446 3.63917 2.44775 2.45667 4.04678C1.27417 5.64581 0 7.55954 0 9.39672C0 10.7502 0.579463 12.0482 1.61091 13.0053C2.64236 13.9623 4.04131 14.5 5.5 14.5C6.95869 14.5 8.35764 13.9623 9.38909 13.0053C10.4205 12.0482 11 10.7502 11 9.39672C11 7.55954 9.72583 5.64581 8.54333 4.04678C7.36083 2.44775 6.1875 1.21446 6.1875 1.21446L5.5 0.5ZM5.5 3.16221C5.90333 3.6045 6.27 3.97023 7.04 5.0079C8.14917 6.50486 9.16667 8.41008 9.16667 9.39672C9.16667 11.2849 7.535 12.7989 5.5 12.7989C3.465 12.7989 1.83333 11.2849 1.83333 9.39672C1.83333 8.41008 2.85083 6.50486 3.96 5.0079C4.73 3.97023 5.09667 3.6045 5.5 3.16221Z" fill="#1888FE"/>
</svg>
