<svg width="9" height="15" viewBox="0 0 9 15" fill="none" xmlns="http://www.w3.org/2000/svg">
<path d="M4.5 7.15C4.07376 7.15 3.66498 6.96563 3.36358 6.63744C3.06218 6.30925 2.89286 5.86413 2.89286 5.4C2.89286 4.93587 3.06218 4.49075 3.36358 4.16256C3.66498 3.83437 4.07376 3.65 4.5 3.65C4.92624 3.65 5.33502 3.83437 5.63642 4.16256C5.93782 4.49075 6.10714 4.93587 6.10714 5.4C6.10714 5.62981 6.06557 5.85738 5.98481 6.0697C5.90404 6.28202 5.78566 6.47493 5.63642 6.63744C5.48718 6.79994 5.31001 6.92884 5.11503 7.01679C4.92004 7.10474 4.71105 7.15 4.5 7.15ZM4.5 0.5C3.30653 0.5 2.16193 1.01625 1.31802 1.93518C0.474106 2.8541 0 4.10044 0 5.4C0 9.075 4.5 14.5 4.5 14.5C4.5 14.5 9 9.075 9 5.4C9 4.10044 8.52589 2.8541 7.68198 1.93518C6.83807 1.01625 5.69347 0.5 4.5 0.5Z" fill="black"/>
</svg>
