<svg width="43" height="47" viewBox="0 0 43 47" fill="none" xmlns="http://www.w3.org/2000/svg">
<path d="M37.8333 5.00004H35.5V0.333374H30.8333V5.00004H12.1667V0.333374H7.5V5.00004H5.16667C2.6 5.00004 0.5 7.10004 0.5 9.66671V42.3334C0.5 44.9234 2.6 47 5.16667 47H37.8333C40.4233 47 42.5 44.9234 42.5 42.3334V9.66671C42.5 7.10004 40.4233 5.00004 37.8333 5.00004ZM37.8333 42.3334H5.16667V19H37.8333V42.3334ZM5.16667 14.3334V9.66671H37.8333V14.3334H5.16667ZM18.14 38.74L32 24.9034L29.5033 22.43L18.14 33.7934L13.2167 28.87L10.7433 31.3434L18.14 38.74Z" fill="black"/>
</svg>
