<svg width="13" height="11" viewBox="0 0 13 11" fill="none" xmlns="http://www.w3.org/2000/svg">
<path d="M9.95312 2.21656C9.51375 2.65 9.40094 3.27344 9.60875 3.80781L7.875 5.54156V4.3125C7.875 3.98594 7.60781 3.71875 7.28125 3.71875H6.66969C6.6875 3.61781 6.6875 3.52281 6.6875 3.42188C6.6875 1.61688 5.22687 0.15625 3.42188 0.15625C1.61688 0.15625 0.15625 1.61688 0.15625 3.42188C0.15625 4.43719 0.619375 5.33969 1.34375 5.93937V9.65625C1.34375 9.98281 1.61094 10.25 1.9375 10.25H7.28125C7.60781 10.25 7.875 9.98281 7.875 9.65625V7.21594L10.4459 4.645C10.9803 4.85281 11.6038 4.74594 12.0312 4.3125L9.95312 2.21656ZM1.37344 3.71875C1.36156 3.61781 1.34375 3.52281 1.34375 3.42188C1.34375 2.27594 2.27594 1.34375 3.42188 1.34375C4.56781 1.34375 5.5 2.27594 5.5 3.42188C5.5 3.52281 5.48219 3.61781 5.47031 3.71875M6.6875 9.0625H2.53125V4.90625H6.6875V9.0625Z" fill="#386B68"/>
</svg>
