<svg width="42" height="39" viewBox="0 0 42 39" fill="none" xmlns="http://www.w3.org/2000/svg">
<path d="M41.2207 4.025V0.575L37.7707 0.191666C37.5791 0.191666 36.4291 0 34.5124 0C26.6541 0 20.9041 2.3 17.6457 6.325C15.1541 4.79167 11.7041 3.83333 7.67905 3.83333C5.76239 3.83333 4.42072 4.025 4.42072 4.025L0.779053 4.6L0.970719 7.85833C1.16239 13.6083 4.03739 24.5333 14.0041 24.5333C14.1957 24.5333 14.1957 24.5333 14.3874 24.5333V31.05C7.10405 32.0083 0.970719 34.5 0.970719 34.5V38.3333H39.3041V34.5C39.3041 34.5 33.1707 32.0083 25.8874 31.05V24.9167C37.9624 24.725 41.2207 11.1167 41.2207 4.025ZM20.1374 30.6667C19.5624 30.6667 18.7957 30.6667 18.2207 30.6667V19.9333C18.2207 19.9333 17.8374 13.4167 12.4707 13.4167C12.4707 13.4167 15.3457 14.95 16.1124 20.5083C15.3457 20.7 14.5791 20.7 14.0041 20.7C5.18739 20.7 4.80405 7.85833 4.80405 7.85833C4.80405 7.85833 5.95405 7.66667 7.67905 7.66667C11.3207 7.66667 17.2624 8.43333 18.9874 13.6083C19.9457 4.98333 29.7207 3.83333 34.5124 3.83333C36.2374 3.83333 37.3874 4.025 37.3874 4.025C37.3874 4.025 37.3874 21.275 25.3124 21.275C24.9291 21.275 24.3541 21.275 23.9707 21.275C23.9707 17.4417 27.8041 11.6917 27.8041 11.6917C22.0541 13.6083 22.0541 21.0833 22.0541 21.0833V30.6667C21.4791 30.6667 20.7124 30.6667 20.1374 30.6667Z" fill="#132321"/>
</svg>
