<svg width="23" height="24" viewBox="0 0 23 24" fill="none" xmlns="http://www.w3.org/2000/svg">
<path d="M16.9332 2.52632C17.6291 2.52632 18.3249 2.52632 18.9048 2.65263C19.0672 4.67368 19.1136 8.10947 18.0698 11.3684C18.8932 11.3684 19.6702 11.5832 20.3893 11.8863C22.0825 6.18947 20.9923 0.378947 20.9923 0.378947C20.9923 0.378947 19.3687 0 16.9332 0C10.5547 0 -1.15875 2.65263 0.696838 22.4842C1.97255 22.6105 3.24827 22.7368 4.40801 22.7368C7.13341 22.7368 9.4413 22.3453 11.3665 21.6758C11.0881 20.8926 10.9026 20.0463 10.9026 19.1621C9.05858 19.8568 6.87827 20.2105 4.40801 20.2105H2.90035C2.6684 14.4 3.71217 9.85263 6.14763 6.94737C9.04699 3.28421 13.686 2.52632 16.9332 2.52632ZM16.7013 5.05263C5.10386 5.05263 5.10386 17.6842 5.10386 17.6842C9.74283 7.57895 16.7013 5.05263 16.7013 5.05263ZM16.7013 17.6842H13.2221V20.2105H16.7013V24H19.0208V20.2105H22.5V17.6842H19.0208V13.8947H16.7013V17.6842Z" fill="black"/>
</svg>
